{
	"asset":{
		"generator":"Khronos glTF Blender I/O v3.6.27",
		"version":"2.0"
	},
	"extensionsUsed":[
		"KHR_materials_unlit"
	],
	"scene":0,
	"scenes":[
		{
			"name":"Scene",
			"nodes":[
				0,
				1
			]
		}
	],
	"nodes":[
		{
			"mesh":0,
			"name":"Object_10",
			"rotation":[
				-0.70710688829422,
				0,
				0,
				0.7071066498756409
			],
			"scale":[
				1.0045850276947021,
				1.0045851469039917,
				1.0045851469039917
			]
		},
		{
			"mesh":1,
			"name":"Object_11",
			"rotation":[
				-0.70710688829422,
				0,
				0,
				0.7071066498756409
			],
			"scale":[
				1.0045850276947021,
				1.0045851469039917,
				1.0045851469039917
			]
		}
	],
	"materials":[
		{
			"doubleSided":true,
			"extensions":{
				"KHR_materials_unlit":{}
			},
			"name":"13___Defaultdddddddd",
			"pbrMetallicRoughness":{
				"baseColorTexture":{
					"index":0,
					"texCoord":0
				},
				"metallicFactor":0,
				"roughnessFactor":0.9
			}
		}
	],
	"meshes":[
		{
			"name":"Object_8",
			"primitives":[
				{
					"attributes":{
						"POSITION":0,
						"NORMAL":1,
						"TEXCOORD_0":2
					},
					"indices":3,
					"material":0
				}
			]
		},
		{
			"name":"Object_9",
			"primitives":[
				{
					"attributes":{
						"POSITION":4,
						"NORMAL":5,
						"TEXCOORD_0":6
					},
					"indices":7,
					"material":0
				}
			]
		}
	],
	"textures":[
		{
			"sampler":0,
			"source":0
		}
	],
	"images":[
		{
			"bufferView":4,
			"mimeType":"image/jpeg",
			"name":"13___Defaultdddddddd_baseColor"
		}
	],
	"accessors":[
		{
			"bufferView":0,
			"componentType":5126,
			"count":1330,
			"max":[
				0.133200004696846,
				-0.267300009727478,
				1.0628999471664429
			],
			"min":[
				-1.6318999528884888,
				-2.4007999897003174,
				0.14270000159740448
			],
			"type":"VEC3"
		},
		{
			"bufferView":1,
			"componentType":5126,
			"count":1330,
			"type":"VEC3"
		},
		{
			"bufferView":2,
			"componentType":5126,
			"count":1330,
			"type":"VEC2"
		},
		{
			"bufferView":3,
			"componentType":5123,
			"count":4032,
			"type":"SCALAR"
		},
		{
			"bufferView":5,
			"componentType":5126,
			"count":2190,
			"max":[
				0.133200004696846,
				-0.267300009727478,
				1.0628999471664429
			],
			"min":[
				-1.6318999528884888,
				-2.4007999897003174,
				0.0035000001080334187
			],
			"type":"VEC3"
		},
		{
			"bufferView":6,
			"componentType":5126,
			"count":2190,
			"type":"VEC3"
		},
		{
			"bufferView":7,
			"componentType":5126,
			"count":2190,
			"type":"VEC2"
		},
		{
			"bufferView":8,
			"componentType":5123,
			"count":7632,
			"type":"SCALAR"
		}
	],
	"bufferViews":[
		{
			"buffer":0,
			"byteLength":15960,
			"byteOffset":0,
			"target":34962
		},
		{
			"buffer":0,
			"byteLength":15960,
			"byteOffset":15960,
			"target":34962
		},
		{
			"buffer":0,
			"byteLength":10640,
			"byteOffset":31920,
			"target":34962
		},
		{
			"buffer":0,
			"byteLength":8064,
			"byteOffset":42560,
			"target":34963
		},
		{
			"buffer":0,
			"byteLength":2256562,
			"byteOffset":50624
		},
		{
			"buffer":0,
			"byteLength":26280,
			"byteOffset":2307188,
			"target":34962
		},
		{
			"buffer":0,
			"byteLength":26280,
			"byteOffset":2333468,
			"target":34962
		},
		{
			"buffer":0,
			"byteLength":17520,
			"byteOffset":2359748,
			"target":34962
		},
		{
			"buffer":0,
			"byteLength":15264,
			"byteOffset":2377268,
			"target":34963
		}
	],
	"samplers":[
		{
			"magFilter":9729,
			"minFilter":9987
		}
	],
	"buffers":[
		{
			"byteLength":2392532,
			"uri":"data:application/octet-stream;base64,"
		}
	]
}
